<?xml version="1.0" standalone="no"?>
<!DOCTYPE svg PUBLIC "-//W3C//DTD SVG 20010904//EN"
 "http://www.w3.org/TR/2001/REC-SVG-20010904/DTD/svg10.dtd">
<svg version="1.0" xmlns="http://www.w3.org/2000/svg"
 width="381.000000pt" height="381.000000pt" viewBox="0 0 381.000000 381.000000"
 preserveAspectRatio="xMidYMid meet">

<g transform="translate(0.000000,381.000000) scale(0.100000,-0.100000)"
fill="#000000" stroke="none">
<path d="M1700 3800 c-805 -99 -1445 -655 -1638 -1426 -30 -119 -58 -301 -49
-311 3 -2 232 -98 508 -213 l503 -208 55 29 c72 38 151 59 222 59 l56 0 224
325 224 325 11 88 c33 260 172 460 399 572 111 55 189 73 315 73 124 0 202
-18 315 -73 186 -90 333 -273 381 -475 21 -90 21 -241 0 -328 -47 -201 -184
-376 -366 -471 -89 -46 -152 -65 -263 -79 l-95 -12 -315 -225 -315 -225 -6
-68 c-13 -137 -85 -281 -184 -367 -165 -143 -412 -170 -607 -67 -115 61 -226
196 -257 311 -7 27 -20 53 -28 58 -37 23 -705 294 -708 287 -6 -15 51 -167
109 -289 516 -1079 1882 -1416 2848 -703 90 67 261 231 336 323 87 106 163
227 231 365 465 945 70 2085 -881 2545 -172 83 -319 130 -520 165 -107 19
-400 28 -505 15z"/>
<path d="M2450 2870 c-257 -46 -434 -291 -392 -542 59 -352 466 -522 750 -314
333 246 219 766 -187 852 -72 15 -103 16 -171 4z m225 -144 c76 -34 139 -97
178 -175 28 -58 32 -75 32 -151 0 -76 -4 -93 -32 -151 -39 -79 -102 -140 -181
-177 -48 -22 -71 -27 -142 -27 -71 0 -94 5 -142 27 -79 37 -142 98 -181 177
-29 59 -32 75 -32 151 0 72 5 94 28 145 47 101 139 178 244 205 61 15 167 4
228 -24z"/>
<path d="M1226 1587 l-39 -12 141 -58 c81 -34 157 -73 179 -92 127 -108 136
-313 19 -429 -100 -101 -217 -117 -371 -52 -49 21 -112 47 -138 57 l-48 19 23
-41 c70 -125 245 -203 400 -178 318 51 450 438 229 672 -100 106 -264 153
-395 114z"/>
</g>
</svg>
